<?xml version="1.0" encoding="utf-8"?>
<!-- Generator: Adobe Illustrator 27.5.0, SVG Export Plug-In . SVG Version: 6.00 Build 0)  -->
<svg version="1.1" xmlns="http://www.w3.org/2000/svg" xmlns:xlink="http://www.w3.org/1999/xlink" x="0px" y="0px"
	 viewBox="0 0 500 500" style="enable-background:new 0 0 500 500;" xml:space="preserve">
<g id="BACKGROUND">
	<rect style="fill:#FFF8DC;" width="500" height="500"/>
</g>
<g id="OBJECTS">
	<g>
		<g>
			<g>
				<g>
					<g>
						<path style="fill:#F6E290;" d="M414.404,243.987c14.892-33.508,45.608-65.154,28.854-102.385
							c-10.238-24.2-34.129-30.378-64.229-35.887c-2.792-0.931-7.28-1.883-10.072-3.745c-17.685-15.823-22.499-34.83-45.768-44.138
							c-13.031-4.654-26.992-3.723-38.162,5.585C271.065,76.449,263.031,93.202,250,106.232
							c-16.839,16.215-33.04,20.838-55.161,23.69c-26.518,3.012-35.089,0.865-52.22-2.281c-48.4-9.308-74.462,41.885-64.223,82.839
							c5.585,24.2,25.765,48.82,19.25,73.951c-8.377,35.369-33.161,42.428-28.234,80.428c2.844,21.941,18.615,37.231,37.231,48.4
							c37.231,22.339,65.784,11.571,103.015-0.529c13.962-3.723,31.035-2.741,44.468,1.791c30.88,10.42,63.479,32.374,96.987,23.067
							c22.339-5.584,48.208-18.348,53.793-36.963c2.706-3.365,3.398-9.455,11.891-15.276c24.433-15.005,25.682-33.911,25.531-44.561
							c-0.379-26.796-16.754-40.954-26.062-61.431C410.681,268.187,409.75,254.226,414.404,243.987z"/>
					</g>
				</g>
			</g>
			<path style="fill:#FFEDA1;" d="M361.619,139.44c-0.379-26.797-16.754-40.954-26.061-61.431
				c-2.541-5.081-4.106-10.74-4.633-16.364c-2.344-1.399-4.901-2.679-7.736-3.813c-13.031-4.654-26.992-3.723-38.162,5.585
				C271.065,76.449,263.031,93.202,250,106.232c-16.839,16.215-33.04,20.838-55.161,23.69c-26.518,3.012-35.089,0.865-52.22-2.281
				c-48.4-9.308-74.462,41.885-64.223,82.839c1.033,4.477,2.568,8.969,4.338,13.475c14.705-2.044,29.594-7.17,46.214-12.572
				c13.962-3.723,31.035-2.742,44.468,1.791c30.88,10.42,63.479,32.374,96.987,23.067c22.339-5.584,48.208-18.348,53.793-36.964
				c2.706-3.365,3.398-9.455,11.891-15.276C360.521,168.996,361.769,150.09,361.619,139.44z"/>
			<g>
				<g>
					<g>
						<path style="fill:#EABA65;" d="M76.643,385.434c6.924,11.496,17.854,20.539,29.999,27.825
							c37.231,22.339,67.641,15.358,104.871,3.258c13.962-3.723,28.455-1.861,41.486,3.723
							c30.715,13.962,73.183,27.187,101.796,20.534c22.428-5.215,38.534-14.037,47.841-31.805
							c3.923-6.845,4.769-12.652,7.216-16.842L76.643,385.434z"/>
					</g>
				</g>
			</g>
		</g>
		<g>
			<g>
				<g>
					<g>
						<g>
							<g>
								<path style="fill:#6A794A;" d="M381.372,321.209c0,0-8.353-50.805,6.482-82.711c14.835-31.906-0.372-45.168,11.174-75.117
									c11.547-29.949,19.075-40.109,24.811-45.393c9.679,28.044,16.132,76.079-3.943,117.499s-31.82,81.705-32.042,91.232
									C387.633,336.247,381.206,334.622,381.372,321.209z"/>
							</g>
							<g>
								<path style="fill:#899B5C;" d="M382.954,338.28c-0.196,0-0.357-0.179-0.358-0.402c-0.004-0.431-0.184-43.465,13.312-78.555
									c1.479-3.845,2.973-7.612,4.417-11.255c12.184-30.733,22.707-57.274,22.243-119.508c-0.002-0.225,0.158-0.408,0.355-0.41
									c0.001,0,0.002,0,0.003,0c0.197,0,0.357,0.18,0.359,0.403c0.464,62.411-10.088,89.028-22.306,119.848
									c-1.443,3.641-2.936,7.406-4.414,11.248c-13.434,34.927-13.256,77.793-13.253,78.222c0.002,0.225-0.157,0.408-0.355,0.41
									C382.956,338.28,382.955,338.28,382.954,338.28z"/>
							</g>
						</g>
						<g>
							<g>
								<path style="fill:#6A794A;" d="M373.653,330.855c0,0-23.141-22.536-27.197-46.233
									c-4.056-23.696-16.893-23.388-21.941-44.501c-5.048-21.113-4.877-29.992-3.838-35.474
									c15.418,10.032,36.544,32.026,41.383,63.176c4.84,31.15,13.606,57.751,17.013,62.827
									C382.479,335.725,378.525,337.931,373.653,330.855z"/>
							</g>
							<g>
								<path style="fill:#899B5C;" d="M380.639,339.07c-0.069,0-0.138-0.034-0.185-0.1c-0.161-0.223-16.165-22.589-22.097-47.311
									c-0.65-2.709-1.263-5.384-1.857-7.971c-5.005-21.826-9.328-40.674-32.579-72.922c-0.084-0.116-0.069-0.288,0.034-0.383
									c0.103-0.095,0.253-0.078,0.338,0.038c23.317,32.341,27.652,51.243,32.671,73.129c0.593,2.586,1.206,5.259,1.855,7.965
									c5.904,24.607,21.845,46.887,22.005,47.109c0.084,0.116,0.069,0.287-0.034,0.383
									C380.747,339.049,380.693,339.07,380.639,339.07z"/>
							</g>
						</g>
						<g>
							<g>
								<path style="fill:#7C8C54;" d="M375.757,328.804c0,0-19.721-35.742-16.862-64.986c2.86-29.244-12.178-34.164-11.299-60.809
									s3.918-36.908,6.881-42.861c14.734,18.014,32.282,52.296,27.95,90.536c-4.332,38.241-2.64,72.8-0.299,80.108
									C384.47,338.101,379.163,339.043,375.757,328.804z"/>
							</g>
							<g>
								<path style="fill:#899B5C;" d="M381.346,341.251c-0.116,0-0.225-0.079-0.271-0.208
									c-0.116-0.325-11.587-32.934-10.582-64.141c0.11-3.42,0.252-6.786,0.389-10.04c1.156-27.457,2.155-51.169-14.587-98.258
									c-0.06-0.17,0.012-0.363,0.162-0.431c0.149-0.067,0.32,0.014,0.38,0.184c16.789,47.223,15.788,71.003,14.628,98.536
									c-0.137,3.253-0.279,6.617-0.388,10.033c-1.001,31.068,10.424,63.545,10.539,63.87c0.06,0.17-0.012,0.363-0.162,0.431
									C381.42,341.243,381.383,341.251,381.346,341.251z"/>
							</g>
						</g>
						<g>
							<g>
								<path style="fill:#7C8C54;" d="M395.168,318.841c0,0,0.341-35.636,14.139-54.971c13.798-19.335,5.075-30.612,16.418-49.122
									c11.343-18.51,17.634-24.242,22.137-26.947c3.241,20.439,1.941,53.913-16.524,78.89
									c-18.465,24.977-31.162,50.449-32.435,56.861C397.63,329.963,393.474,327.889,395.168,318.841z"/>
							</g>
							<g>
								<path style="fill:#899B5C;" d="M394.273,330.634c-0.015,0-0.031-0.002-0.046-0.005c-0.134-0.029-0.222-0.175-0.197-0.327
									c0.049-0.292,5.001-29.431,18.27-51.123c1.454-2.378,2.909-4.699,4.315-6.945c11.867-18.944,22.115-35.303,29.141-77.474
									c0.025-0.152,0.157-0.253,0.289-0.223c0.134,0.029,0.222,0.175,0.197,0.327c-7.045,42.291-17.323,58.697-29.223,77.695
									c-1.406,2.244-2.86,4.565-4.313,6.94c-13.207,21.592-18.141,50.617-18.19,50.908
									C394.493,330.54,394.39,330.634,394.273,330.634z"/>
							</g>
						</g>
					</g>
					<g>
						<path style="fill:#BF5E1D;" d="M390.693,316.9h-41.775l9.629,78.435c0.234,1.909,1.674,3.33,3.374,3.33h38.298
							c1.725,0,3.177-1.461,3.382-3.402l8.29-78.363H390.693z"/>
					</g>
				</g>
				<g>
					<g>
						<g>
							<g>
								<path style="fill:#6A794A;" d="M110.003,331.051c0,0,7.292-44.35-5.658-72.201c-12.95-27.851,0.325-39.429-9.755-65.572
									c-10.08-26.143-16.651-35.013-21.658-39.625c-8.449,24.481-14.082,66.412,3.442,102.569
									c17.524,36.157,27.777,71.323,27.97,79.64C104.538,344.178,110.148,342.759,110.003,331.051z"/>
							</g>
							<g>
								<path style="fill:#899B5C;" d="M108.623,345.953c0.171,0,0.311-0.157,0.313-0.351c0.003-0.376,0.161-37.942-11.621-68.574
									c-1.291-3.356-2.595-6.645-3.856-9.825c-10.636-26.828-19.821-49.997-19.417-104.322c0.002-0.196-0.138-0.356-0.31-0.358
									c-0.001,0-0.002,0-0.003,0c-0.172,0-0.311,0.157-0.313,0.352c-0.405,54.481,8.806,77.716,19.472,104.619
									c1.26,3.179,2.563,6.465,3.853,9.819c11.728,30.489,11.572,67.908,11.569,68.282c-0.002,0.196,0.137,0.356,0.31,0.358
									C108.621,345.953,108.622,345.953,108.623,345.953z"/>
							</g>
						</g>
						<g>
							<g>
								<path style="fill:#6A794A;" d="M116.742,339.471c0,0,20.201-19.673,23.742-40.358c3.541-20.685,14.747-20.417,19.153-38.846
									c4.407-18.43,4.257-26.181,3.35-30.967c-13.459,8.757-31.9,27.956-36.125,55.149c-4.225,27.192-11.877,50.413-14.851,54.844
									C109.037,343.723,112.489,345.648,116.742,339.471z"/>
							</g>
							<g>
								<path style="fill:#899B5C;" d="M110.643,346.642c0.06,0,0.121-0.03,0.162-0.087c0.141-0.195,14.112-19.719,19.289-41.299
									c0.568-2.364,1.103-4.7,1.621-6.958c4.369-19.052,8.143-35.506,28.439-63.656c0.073-0.102,0.06-0.251-0.03-0.334
									c-0.09-0.083-0.221-0.068-0.295,0.034c-20.354,28.231-24.138,44.732-28.52,63.837c-0.518,2.257-1.053,4.591-1.62,6.953
									c-5.154,21.48-19.069,40.929-19.209,41.123c-0.073,0.101-0.06,0.251,0.029,0.334
									C110.549,346.624,110.596,346.642,110.643,346.642z"/>
							</g>
						</g>
						<g>
							<g>
								<path style="fill:#7C8C54;" d="M114.905,337.681c0,0,17.215-31.2,14.719-56.728c-2.496-25.528,10.631-29.823,9.863-53.083
									c-0.767-23.259-3.42-32.218-6.007-37.414c-12.862,15.725-28.181,45.651-24.399,79.032c3.782,33.382,2.304,63.55,0.261,69.93
									C107.299,345.797,111.932,346.618,114.905,337.681z"/>
							</g>
							<g>
								<path style="fill:#899B5C;" d="M110.026,348.547c0.101,0,0.196-0.069,0.237-0.182c0.101-0.284,10.114-28.75,9.237-55.991
									c-0.096-2.985-0.22-5.923-0.34-8.765c-1.009-23.968-1.881-44.667,12.733-85.773c0.053-0.148-0.011-0.317-0.141-0.377
									c-0.131-0.058-0.28,0.012-0.332,0.16c-14.656,41.223-13.782,61.981-12.77,86.016c0.119,2.84,0.243,5.777,0.339,8.758
									c0.874,27.12-9.099,55.471-9.2,55.754c-0.053,0.148,0.011,0.317,0.141,0.376
									C109.962,348.54,109.994,348.547,110.026,348.547z"/>
							</g>
						</g>
						<g>
							<g>
								<path style="fill:#7C8C54;" d="M97.96,328.984c0,0-0.297-31.108-12.342-47.986c-12.045-16.878-4.43-26.723-14.332-42.88
									c-9.902-16.158-15.394-21.162-19.325-23.523c-2.829,17.842-1.694,47.062,14.424,68.865
									c16.119,21.803,27.202,44.039,28.314,49.636C95.812,338.693,99.439,336.882,97.96,328.984z"/>
							</g>
							<g>
								<path style="fill:#899B5C;" d="M98.742,339.278c0.013,0,0.027-0.001,0.04-0.004c0.117-0.025,0.194-0.153,0.172-0.285
									c-0.042-0.255-4.365-25.692-15.948-44.628c-1.269-2.075-2.539-4.102-3.767-6.063c-10.359-16.536-19.305-30.818-25.438-67.63
									c-0.022-0.133-0.137-0.221-0.252-0.195c-0.117,0.025-0.194,0.153-0.172,0.286c6.15,36.917,15.122,51.239,25.51,67.822
									c1.228,1.959,2.497,3.985,3.765,6.058c11.529,18.849,15.836,44.185,15.878,44.439
									C98.55,339.196,98.64,339.278,98.742,339.278z"/>
							</g>
						</g>
					</g>
					<g>
						<path style="fill:#BF5E1D;" d="M101.867,327.29h36.467l-8.405,68.469c-0.205,1.666-1.461,2.907-2.945,2.907H93.552
							c-1.505,0-2.773-1.275-2.952-2.97l-7.237-68.406H101.867z"/>
					</g>
				</g>
			</g>
			<g>
				<g>
					<g>
						<g>
							<g>
								<g>
									<g>
										<g>
											<path style="fill:#201612;" d="M225.553,384.776c0,0-10.577,10.898-13.783,25.963
												c-3.205,15.065,22.116,11.539,29.168,4.487c7.052-7.052,13.186-19.232,13.186-19.232L225.553,384.776z"/>
										</g>
										<g>
											<path style="fill:#362218;" d="M214.246,341.588c0,0-3.692-11.306,7.615-15.229
												c11.307-3.923,74.539,14.005,86.378,21.386c11.839,7.381,1.877,24.92,1.877,24.92L214.246,341.588z"/>
										</g>
										<g>
											<path style="fill:#492E22;" d="M278.919,351.975c-18.681-2.626-57.947-16.721-73.653-14.798
												c-15.706,1.923-22.453,29.881-6.426,43.343c16.026,13.462,71.225,25.731,91.419,32.141
												c20.193,6.411,57.501,7.368,68.272-11.218c10.772-18.587,9.616-32.882,9.616-32.882l-25.374-16.663
												C342.773,351.898,294.699,354.194,278.919,351.975z"/>
										</g>
										<g>
											<path style="fill:#633D2F;" d="M367.053,379.064c-0.122-0.119-12.393-11.909-38.151-14.788l0.05-0.458
												c25.931,2.898,38.302,14.796,38.424,14.916L367.053,379.064z"/>
										</g>
										<g>
											<path style="fill:#633D2F;" d="M283.426,395.917c-4.152,0-8.267-0.557-12.249-2.198
												c-5.061-2.086-11.481-3.778-18.915-5.738c-7.985-2.104-17.035-4.49-26.097-7.873
												c-17.666-6.595-28.583-12.92-35.395-20.506l0.343-0.308c6.76,7.527,17.62,13.813,35.213,20.381
												c9.04,3.375,18.079,5.758,26.053,7.86c7.45,1.964,13.884,3.66,18.973,5.757c8.139,3.355,16.903,2.105,25.382,0.897
												c2.527-0.361,4.913-0.7,7.25-0.913c5.318-0.483,7.45-2.202,9.706-4.021c2.087-1.683,4.245-3.422,8.953-4.522
												c5.806-1.357,6.707-3.02,7.847-5.128c0.813-1.503,1.734-3.207,4.453-5.193c6.466-4.723,9.021-17.763,9.046-17.894
												l0.452,0.087c-0.104,0.543-2.615,13.352-9.226,18.181c-2.634,1.923-3.53,3.578-4.319,5.039
												c-1.195,2.209-2.139,3.954-8.148,5.357c-4.605,1.076-6.721,2.783-8.767,4.432c-2.313,1.865-4.497,3.626-9.954,4.122
												c-2.325,0.211-4.706,0.551-7.227,0.91C292.38,395.275,287.882,395.917,283.426,395.917z"/>
										</g>
										<g>
											<path style="fill:#633D2F;" d="M340.926,390.754c-0.904-12.2-19.546-23.703-19.734-23.817l0.24-0.395
												c0.19,0.116,19.033,11.742,19.954,24.178L340.926,390.754z"/>
										</g>
										<g>
											<path style="fill:#633D2F;" d="M323.685,403.049l-0.46-0.043c1.879-20.116-14.817-34.863-14.987-35.01l0.303-0.348
												C308.712,367.795,325.586,382.692,323.685,403.049z"/>
										</g>
									</g>
									<g>
										<path style="fill:#ED692F;" d="M297.446,268.299c0,0,20.914-15.089,39.049-15.329c18.135-0.24,22.943,26.325,3.418,37.538
											c-12.922,7.421-57.813,20.111-81.964,11.537c-24.152-8.574-40.762-29.031-43.281-39.721
											c-2.519-10.69,7.274-16.64,13.055-13.589c5.78,3.051,18.065,15.298,33.847,21.854
											C277.35,277.146,285.674,273.539,297.446,268.299z"/>
										<g>
											<path style="fill:#FF694A;" d="M300.007,352.971c0,0-7.787-59.626,12.406-101.936
												c15.385-27.423,56.084-5.369,56.084-5.369l2.801,13.963c0,0,9.379,40.928,6.735,62.083
												c-2.644,21.155,1.901,25.482,0.47,31.732c-1.432,6.25,0.972,17.068-9.845,21.155
												C360.244,358.733,318.758,353.052,300.007,352.971z"/>
										</g>
										<g>
											<path style="fill:#F9553A;" d="M337.506,325.594c-2.769-0.923-8.307,5.538-13.845,2.769
												c10.153-11.076,27.689-18.459,26.766-33.227c-0.923-13.845-3.692-27.689-9.23-41.534
												c-11.383,6.83-20.889,3.047-25.964-6.719c-1.011,1.24-1.958,2.615-2.821,4.153
												c-33.465,57.017-20.039,101.803-20.039,101.803c9.385,0.04,32.099,1.617,45.878,5.038
												c-3.857-5.614-8.139-10.804-11.822-16.592C323.661,337.592,343.044,328.362,337.506,325.594z"/>
										</g>
										<g>
											<path style="fill:#BA4D3A;" d="M371.384,367.937c-0.046,0-0.089-0.028-0.107-0.073
												c-3.979-10.074-11.489-15.866-17.088-18.95c-6.072-3.346-11.269-4.319-11.321-4.328
												c-0.062-0.012-0.105-0.071-0.093-0.134c0.011-0.062,0.066-0.103,0.134-0.093c0.052,0.01,5.28,0.988,11.384,4.349
												c5.634,3.103,13.192,8.931,17.198,19.072c0.023,0.06-0.005,0.126-0.065,0.15
												C371.413,367.934,371.398,367.937,371.384,367.937z"/>
										</g>
										<g>
											<path style="fill:#BA4D3A;" d="M369.884,354.101c-0.041,0-0.082-0.023-0.103-0.062
												c-7.187-13.844-23.075-18.657-23.235-18.704c-0.061-0.018-0.096-0.082-0.078-0.143c0.019-0.061,0.084-0.092,0.143-0.078
												c0.16,0.048,16.142,4.889,23.375,18.819c0.029,0.057,0.007,0.126-0.05,0.156
												C369.92,354.097,369.902,354.101,369.884,354.101z"/>
										</g>
										<g>
											<path style="fill:#BA4D3A;" d="M346.156,283.874c-0.011,0-0.022-0.002-0.033-0.005c-0.061-0.018-0.096-0.082-0.078-0.143
												c3.788-12.87-5.126-30.759-5.216-30.938c-0.029-0.057-0.006-0.126,0.051-0.155c0.061-0.028,0.127-0.005,0.155,0.051
												c0.091,0.18,9.046,18.149,5.232,31.107C346.251,283.841,346.205,283.874,346.156,283.874z"/>
										</g>
										<g>
											<g>
												<path style="fill:#FF694A;" d="M323.142,262.174c0,0-12.18-13.943-4.648-28.527
													c7.532-14.584,29.969-16.347,41.028-9.135C339.863,235.931,323.142,262.174,323.142,262.174z"/>
											</g>
											<g>
												<g>
													<path style="fill:#DE9E8B;" d="M308.559,226.435c0,0,13.783,9.936,16.988,29.488
														c14.103-5.769,15.385-16.667,15.385-16.667l-8.654-26.924L308.559,226.435z"/>
												</g>
												<g>
													<path style="fill:#D38E7F;" d="M337.554,228.748l-5.277-16.416l-23.719,14.103c0,0,8.07,5.828,13.296,17.325
														C328.884,241.41,334.702,235.738,337.554,228.748z"/>
												</g>
												<g>
													<g>
														<g>
															<g>
																<path style="fill:#EBB39F;" d="M301.147,168.794c0,0-3.366,12.26-11.539,22.357
																	c-8.173,10.097-16.347,20.915-12.02,33.415c4.327,12.501,29.328,16.427,37.742,13.382
																	c8.414-3.045,22.597-13.863,29.328-32.373c6.731-18.51,1.442-30.53-13.943-35.098
																	C315.33,165.91,301.69,167.052,301.147,168.794z"/>
															</g>
															<g>
																<path style="fill:#DE9E8B;" d="M294.797,183.505c0,0-5.55-10.624,2.743-17.355
																	c-4.327-8.534-0.841-22.717,13.462-20.073c-1.082-8.173,12.741-9.496,15.265-2.765
																	c2.404-7.933,13.102-6.25,15.746,6.972c1.803-3.606,9.976,1.322,8.895,8.414c4.087-7.092,15.025-0.962,14.784,6.611
																	c-0.24,7.573-2.644,10.818-2.644,10.818s9.736-2.792,11.178,7.378c1.442,10.171-6.01,11.853-7.212,12.454
																	c0,0,3.966,4.808-3.125,9.736c-1.322,11.058-21.876,15.866-21.876,15.866s-1.493-7.271-2.762-7.423
																	c-1.269-0.151-6.115,3.655-8.176,8.745c-2.44,6.023-6.13,11.899-14.304,16.046
																	c-8.173,4.147-23.439,0.902-32.934-5.108c-9.496-6.01-13.077-21.096-0.949-33.806
																	c12.248,0.632,21.864,1.593,37.49,20.104c6.25-5.77,9.85-3.366,12.137-7.573c2.287-4.207-1.803-11.501,0-14.866
																	c-6.25-3.846-3.488-10.236-3.127-10.957c-6.491,2.765-10.639-1.786-9.076-5.272
																	c-5.529,6.01-14.562-1.749-15.884-6.076c-2.885,3.606-3.401-2.133-3.401-2.133S296.167,181.221,294.797,183.505z"/>
															</g>
															<g>
																<path style="fill:#362218;" d="M294.797,183.505c0,0-5.55-10.624,2.743-17.355
																	c-4.327-8.534-0.841-22.717,13.462-20.073c-1.082-8.173,12.741-9.496,15.265-2.765
																	c2.404-7.933,13.102-6.25,15.746,6.972c1.803-3.606,9.976,1.322,8.895,8.414c4.087-7.092,15.025-0.962,14.784,6.611
																	c-0.24,7.573-2.644,10.818-2.644,10.818s9.736-2.792,11.178,7.378c1.442,10.171-6.01,11.853-7.212,12.454
																	c0,0,3.966,4.808-3.125,9.736c-1.322,11.058-21.876,15.866-21.876,15.866s-1.493-7.271-2.762-7.423
																	c-1.269-0.151-6.115,3.655-8.176,8.745c-2.44,6.023-6.13,11.899-14.304,16.046
																	c-8.173,4.147-23.439,0.902-32.934-5.108c-9.496-6.01-13.077-21.096-0.949-33.806
																	c12.248,0.632,21.864,1.593,37.49,20.104c6.25-5.77,9.85-3.366,12.137-7.573c2.287-4.207,2.047-13.222,3.85-16.587
																	c-6.25-3.846-3.125-11.299-2.765-12.02c-6.491,2.765-11.659-3.125-10.097-6.611
																	c-5.529,6.01-16.587-0.361-17.91-4.688c-2.885,3.606-4.568,0.601-4.568,0.601S296.167,181.221,294.797,183.505z"/>
															</g>
															<g>
																<path style="fill:#633D2F;" d="M327.122,219.312c0.404,0.716,0.677,1.472,0.918,2.238
																	c0.225,0.771,0.417,1.551,0.477,2.372c-0.405-0.716-0.678-1.472-0.918-2.238
																	C327.376,220.912,327.183,220.132,327.122,219.312z"/>
																<path style="fill:#633D2F;" d="M324.496,220.712c0.18,1.79,0.221,3.579,0.231,5.369
																	c-0.008,1.79-0.05,3.579-0.231,5.369c-0.181-1.79-0.222-3.579-0.231-5.369
																	C324.275,224.292,324.317,222.502,324.496,220.712z"/>
																<path style="fill:#633D2F;" d="M319.392,222.922c0.276,1.858,0.413,3.724,0.519,5.591
																	c0.088,1.868,0.143,3.738,0.058,5.614c-0.277-1.858-0.414-3.724-0.519-5.591
																	C319.364,226.669,319.309,224.799,319.392,222.922z"/>
																<path style="fill:#633D2F;" d="M314.547,224.485c0.295,2.123,0.452,4.253,0.576,6.385
																	c0.107,2.133,0.181,4.268,0.116,6.41c-0.296-2.123-0.453-4.253-0.576-6.385
																	C314.556,228.762,314.483,226.627,314.547,224.485z"/>
																<path style="fill:#633D2F;" d="M308.68,223.72c0.322,2.451,0.466,4.912,0.626,7.372
																	c0.105,2.463,0.225,4.925,0.165,7.396c-0.324-2.451-0.467-4.912-0.626-7.372
																	C308.74,228.653,308.621,226.191,308.68,223.72z"/>
																<path style="fill:#633D2F;" d="M304.386,226.84c0.18,1.74,0.221,3.48,0.231,5.221
																	c-0.008,1.74-0.05,3.48-0.231,5.221c-0.181-1.74-0.222-3.48-0.231-5.221
																	C304.165,230.32,304.206,228.58,304.386,226.84z"/>
																<path style="fill:#633D2F;" d="M299.664,226.84c0.251,1.103,0.364,2.215,0.445,3.329
																	c0.063,1.115,0.093,2.232-0.016,3.358c-0.252-1.103-0.365-2.215-0.444-3.329
																	C299.586,229.083,299.556,227.966,299.664,226.84z"/>
																<path style="fill:#633D2F;" d="M294.13,224.485c0.18,1.262,0.221,2.525,0.231,3.788
																	c-0.008,1.263-0.05,2.525-0.231,3.788c-0.181-1.262-0.222-2.525-0.231-3.788
																	C293.909,227.01,293.95,225.747,294.13,224.485z"/>
																<line style="fill:#633D2F;" x1="289.165" y1="224.485" x2="289.165" y2="229.718"/>
															</g>
															<g>
																<path style="fill:#633D2F;" d="M308.439,159.069c-0.049,0-0.096-0.032-0.11-0.082
																	c-0.062-0.203-1.489-4.998,0.309-8.135c0.703-1.224,1.811-2.025,3.294-2.379c6.245-1.488,9.272,4.492,9.303,4.552
																	c0.028,0.057,0.005,0.126-0.052,0.154c-0.059,0.029-0.125,0.005-0.155-0.052c-0.029-0.059-2.979-5.876-9.041-4.43
																	c-1.42,0.339-2.479,1.102-3.148,2.269c-1.75,3.05-0.304,7.904-0.289,7.953c0.019,0.061-0.015,0.125-0.077,0.144
																	C308.461,159.067,308.45,159.069,308.439,159.069z"/>
															</g>
															<g>
																<path style="fill:#633D2F;" d="M312.774,170.375c-0.051,0-0.099-0.035-0.112-0.087
																	c-0.018-0.07-1.694-7.049,3.773-8.561c5.457-1.512,7.838,3.928,7.862,3.984c0.024,0.059-0.003,0.126-0.061,0.151
																	c-0.057,0.024-0.125-0.002-0.151-0.061c-0.022-0.054-2.324-5.307-7.587-3.851c-5.25,1.452-3.628,8.215-3.611,8.283
																	c0.015,0.062-0.022,0.124-0.084,0.14C312.793,170.374,312.784,170.375,312.774,170.375z"/>
															</g>
															<g>
																<path style="fill:#633D2F;" d="M334.177,175.141c-0.014,0-0.028,0-0.042,0c-2.564-0.013-4.76-1.172-6.183-3.263
																	c-3.42-5.025,0.428-11.595,0.467-11.661c0.033-0.055,0.102-0.073,0.159-0.04c0.054,0.033,0.072,0.104,0.04,0.158
																	c-0.039,0.064-3.811,6.51-0.474,11.413c1.378,2.026,3.507,3.149,5.994,3.162c0.014,0,0.027,0,0.041,0
																	c2.372,0,4.826-1.058,5.846-2.524c0.036-0.054,0.108-0.066,0.16-0.029c0.052,0.036,0.065,0.108,0.029,0.16
																	C339.152,174.042,336.62,175.141,334.177,175.141z"/>
															</g>
															<g>
																<path style="fill:#633D2F;" d="M346.965,186.09c-1.369,0-4.762-0.349-6.14-3.66c-1.736-4.17,2.063-7.46,2.102-7.492
																	c0.049-0.041,0.122-0.035,0.163,0.013c0.04,0.049,0.035,0.122-0.014,0.163c-0.038,0.031-3.709,3.215-2.039,7.228
																	c1.672,4.016,6.438,3.499,6.487,3.494c0.06-0.009,0.12,0.037,0.128,0.101c0.007,0.063-0.038,0.121-0.101,0.128
																	C347.542,186.066,347.322,186.09,346.965,186.09z"/>
															</g>
															<g>
																<path style="fill:#633D2F;" d="M358.462,190.524c-0.042,0-0.081-0.022-0.102-0.062
																	c-0.03-0.056-0.008-0.126,0.048-0.156c2.434-1.28,4.225-3.521,4.561-5.707c0.231-1.499-0.239-2.888-1.358-4.016
																	c-3.132-3.158-7.896-0.898-7.944-0.874c-0.055,0.029-0.126,0.005-0.154-0.053c-0.028-0.057-0.005-0.126,0.053-0.154
																	c0.049-0.024,4.956-2.359,8.209,0.919c1.173,1.182,1.664,2.639,1.422,4.213c-0.347,2.257-2.185,4.564-4.681,5.877
																	C358.499,190.52,358.48,190.524,358.462,190.524z"/>
															</g>
															<g>
																<path style="fill:#EBB39F;" d="M337.767,214.549c0.801-0.962,9.428-5.128,9.762,0
																	c0.335,5.128-8.235,12.83-11.926,12.26c-3.691-0.569-3.606-3.365-2.164-5.609
																	C334.882,218.957,337.767,214.549,337.767,214.549z"/>
															</g>
															<g>
																<path style="fill:#A97347;" d="M305.224,205.408c-0.45,0-0.977-0.113-1.582-0.42
																	c-2.077-1.055-4.327-2.714-3.287-6.213c0.234-0.787,0.584-1.289,1.069-1.535c0.749-0.378,1.638-0.058,2.498,0.251
																	c0.535,0.192,1.089,0.391,1.552,0.391c1.246,0,2.402-2.205,2.742-3.054c0.05-0.124,0.191-0.184,0.313-0.134
																	c0.124,0.049,0.183,0.189,0.134,0.312c-0.055,0.137-1.365,3.356-3.189,3.356c-0.547,0-1.141-0.213-1.714-0.419
																	c-0.801-0.288-1.557-0.56-2.118-0.275c-0.361,0.182-0.631,0.589-0.825,1.243c-0.743,2.498,0.168,4.186,3.044,5.647
																	c0.92,0.468,1.731,0.495,2.407,0.078c0.679-0.416,0.97-1.135,0.97-1.306c0-0.133,0.108-0.24,0.241-0.24
																	c0.132,0,0.241,0.107,0.241,0.24c0,0.401-0.427,1.242-1.2,1.716C306.204,205.239,305.773,205.408,305.224,205.408z"
																	/>
															</g>
															<g>
																<path style="fill:#A97347;" d="M324.465,205.875c-0.035,0-0.07-0.008-0.104-0.023
																	c-0.12-0.057-0.17-0.201-0.114-0.32c0.306-0.641,0.572-2.071,0.055-3.382c-0.351-0.891-0.994-1.524-1.908-1.883
																	c-2.581-1.011-4.072,0.374-4.134,0.433c-0.095,0.09-0.248,0.089-0.34-0.007c-0.092-0.095-0.089-0.247,0.006-0.339
																	c0.071-0.068,1.768-1.66,4.642-0.535c1.029,0.404,1.783,1.149,2.18,2.154c0.514,1.301,0.354,2.878-0.068,3.765
																	C324.641,205.824,324.554,205.875,324.465,205.875z"/>
															</g>
															<g>
																<path style="fill:#A97347;" d="M304.387,192.834c-0.015,0-0.032-0.002-0.048-0.005
																	c-0.13-0.027-0.214-0.153-0.188-0.283c0.02-0.101,0.465-2.477-2.203-3.7c-2.678-1.227-4.508,0.881-4.584,0.972
																	c-0.086,0.101-0.238,0.114-0.339,0.028c-0.101-0.085-0.114-0.237-0.029-0.338c0.021-0.025,2.136-2.481,5.152-1.099
																	c3.023,1.386,2.48,4.206,2.473,4.234C304.598,192.756,304.498,192.834,304.387,192.834z"/>
															</g>
														</g>
														<g>
															<g>
																<g>
																	<path style="fill:#983333;" d="M310.24,215.072c0,0-8.422-1.364-13.558-5.723
																		c-4.115-3.492-6.254-7.574-6.254-7.574c1.177,6.947-0.485,8.924,0.195,11.541c0.68,2.617,5.22,7.09,9.556,5.938
																		C303.612,218.342,306.011,215.375,310.24,215.072z"/>
																</g>
															</g>
															<g>
																<g>
																	<path style="fill:#D66767;" d="M303.066,218.005c-0.921,0.516-1.857,0.976-2.886,1.249
																		c-4.336,1.153-8.876-3.321-9.556-5.938c-0.085-0.326-0.133-0.642-0.155-0.959
																		C295.347,212.109,299.925,213.875,303.066,218.005z"/>
																</g>
															</g>
														</g>
													</g>
													<g>
														<path style="fill:#362218;" d="M328.51,200.043c0,0-1.442-3.152-5.048-5.126c-3.606-1.974-2.564-4.137,0-4.057
															C326.026,190.94,328.671,196.325,328.51,200.043z"/>
													</g>
													<g>
														<path style="fill:#362218;" d="M297.555,184.228c0,0,3.442-0.41,7.005,1.641c3.563,2.051,4.867,0.035,3.464-2.113
															C306.62,181.609,300.646,182.155,297.555,184.228z"/>
													</g>
												</g>
											</g>
											<g>
												<g>
													<path style="fill:#FF8548;" d="M323.142,262.174L323.142,262.174c0,0,12.452-29.316,20.514-35.098
														c8.062-5.782,14.904-5.289,23.879,0c8.975,5.289,10.417,20.033,3.526,33.014c-5.507-9.055-16.565-10.986-25.701-6.018
														c-2.825,1.536-5.062,3.219-6.804,4.811C334.388,262.691,328.499,263.959,323.142,262.174z"/>
												</g>
											</g>
										</g>
									</g>
								</g>
							</g>
						</g>
						<g>
							<path style="fill:#A97347;" d="M337.503,224.485c1.328-0.6,2.583-1.355,3.735-2.233c1.138-0.889,2.211-1.893,2.948-3.125
								c0.373-0.605,0.663-1.268,0.842-1.954c0.174-0.674,0.25-1.415-0.052-1.991c-0.299-0.58-1.001-0.829-1.682-0.833
								c-0.69-0.014-1.39,0.156-2.039,0.424c-1.341,0.554-2.665,1.152-3.841,1.96c-0.584,0.406-1.124,0.874-1.551,1.427
								c-0.409,0.548-0.749,1.216-0.782,1.864c-0.014,0.322,0.1,0.615,0.34,0.794c0.238,0.183,0.575,0.255,0.907,0.253
								c0.666-0.01,1.369-0.281,1.809-0.768c0.437-0.507,0.62-1.227,0.652-1.924c0.016-0.352-0.009-0.707-0.079-1.049
								c-0.065-0.316-0.21-0.733-0.422-0.801l-0.953-0.306l0.979,0.05c1.004,0.051,2.053,0.243,2.894,0.844
								c0.413,0.3,0.746,0.724,0.89,1.215c0.136,0.493,0.075,1.02-0.116,1.481c0.169-0.47,0.202-0.991,0.049-1.46
								c-0.162-0.466-0.497-0.853-0.904-1.121c-0.828-0.537-1.845-0.668-2.821-0.7l0.027-0.257c0.276,0.07,0.374,0.281,0.468,0.447
								c0.087,0.177,0.144,0.361,0.188,0.545c0.086,0.369,0.122,0.746,0.114,1.122c-0.019,0.745-0.18,1.53-0.685,2.154
								c-0.529,0.611-1.308,0.904-2.087,0.928c-0.39,0.003-0.81-0.068-1.159-0.328c-0.358-0.256-0.531-0.724-0.51-1.126
								c0.142-1.619,1.298-2.812,2.491-3.657c1.22-0.861,2.588-1.437,3.937-1.99c0.697-0.279,1.445-0.459,2.215-0.438
								c0.744,0.006,1.632,0.299,2.022,1.062c0.376,0.746,0.253,1.568,0.053,2.276c-0.207,0.718-0.525,1.4-0.93,2.023
								c-0.802,1.254-1.907,2.268-3.102,3.111C340.147,223.241,338.855,223.942,337.503,224.485z"/>
						</g>
					</g>
					<g>
						<g>
							<g>
								<path style="fill:#F9E4D2;" d="M157.871,373.756c5.309-7.3,6.845-26.934,3.461-35.702l-28.122,9.999
									c1.449,6.275,3.209,11.733,4.511,15.503c2.709,7.841,2.138,10.549-0.855,14.399c-2.994,3.849-5.639,9.837-5.069,13.543
									c0.57,3.707,10.225,18.818,10.652,26.089c8.981,2.138,13.828,1.711,15.682,0c1.853-1.711-3.992-6.7-7.413-7.698
									c-3.421-1.14-6.524-11.262-5.384-15.254C146.475,390.642,151.028,383.165,157.871,373.756z"/>
							</g>
							<g>
								<path style="fill:#BC9688;" d="M150.556,415.78c0.391-0.054,0.787,0.005,1.17,0.122c0.384,0.116,0.747,0.331,1.042,0.632
									c0.293,0.301,0.489,0.711,0.52,1.123c0.058,0.412-0.04,0.812-0.192,1.169c-0.036-0.392-0.037-0.763-0.156-1.098
									c-0.103-0.334-0.262-0.637-0.507-0.877C151.96,416.353,151.281,416.05,150.556,415.78z"/>
								<path style="fill:#BC9688;" d="M153.296,415.364c0.391-0.054,0.787,0.005,1.17,0.122c0.384,0.116,0.747,0.331,1.042,0.632
									c0.293,0.301,0.489,0.711,0.52,1.123c0.058,0.412-0.04,0.812-0.192,1.169c-0.036-0.392-0.038-0.763-0.156-1.098
									c-0.103-0.334-0.262-0.637-0.507-0.877C154.7,415.937,154.02,415.635,153.296,415.364z"/>
								<path style="fill:#BC9688;" d="M155.228,414.257c0.391-0.054,0.787,0.005,1.169,0.122c0.384,0.116,0.747,0.331,1.042,0.632
									c0.293,0.301,0.489,0.711,0.52,1.123c0.058,0.412-0.04,0.812-0.192,1.169c-0.036-0.392-0.038-0.763-0.156-1.098
									c-0.103-0.334-0.262-0.637-0.507-0.877C156.632,414.83,155.953,414.527,155.228,414.257z"/>
							</g>
							<g>
								<g>
									<path style="fill:#F9E4D2;" d="M280.492,189.211c-3.421-0.05-25.019,6.465-29.724,3.181
										c-4.704-3.285-18.818-3.558-28.441,7.775c-9.623,11.333-7.256,23.324-7.256,23.324s0.249,15.657-6.879,24.633
										c-7.128,8.976-11.12,6.125-21.099,22.662c-9.979,16.537-33.929,28.797-45.619,32.789c-6.826,2.331-10.344,3.3-12.49,3.703
										c-3.196-3.325-8.958-10.931-9.081-22.664c-0.17-16.252,8.597-14.541,14.799-29.082c6.201-14.541,3.208-21.812,1.283-24.592
										c-1.924-2.78-3.3,12.617-16.084,20.315c-12.425,7.482-25.495,33.149,1.657,70.116c-0.163,2.078-0.277,4.407-0.328,7.009
										c-0.285,14.684,4.419,29.795,7.128,37.636c2.709,7.841,2.138,10.549-0.855,14.399c-2.994,3.849-8.126,9.837-7.556,13.543
										c0.537,3.492,6.769,17.108,7.846,24.752c0.115,0.819,0.718,1.477,1.526,1.654c8.096,1.772,12.538,1.303,14.293-0.318
										c1.853-1.711-3.992-6.7-7.413-7.698c-3.421-1.14-3.279-11.262-2.138-15.254c1.14-3.992,10.977-12.403,17.82-21.812
										c6.843-9.409,6.558-25.09,8.839-28.94c2.281-3.849,23.665-8.554,37.208-11.12c13.543-2.566,46.047-10.621,55.884-34.785
										c9.837-24.164,6.629-32.076-2.138-45.548c-1.971-4.188-3.018-10.787-3.553-16.816l0.001,0
										c0.133-13.2,3.716-16.737,10.773-19.826c7.057-3.089,11.975-4.823,18.176-11.853
										C283.271,199.366,283.913,189.261,280.492,189.211z"/>
									<path style="fill:#FFEEDE;" d="M280.492,189.211c-3.421-0.05-25.019,6.465-29.724,3.181
										c-4.704-3.285-18.818-3.558-28.441,7.775c-9.623,11.333-7.256,23.324-7.256,23.324s0.249,15.657-6.879,24.633
										c-7.128,8.976-11.12,6.125-21.099,22.662c-9.979,16.537-33.929,28.797-45.619,32.789c-6.826,2.331-10.344,3.3-12.49,3.703
										c-3.196-3.325-8.958-10.931-9.081-22.664c-0.17-16.252,8.597-14.541,14.799-29.082c6.201-14.541,3.208-21.812,1.283-24.592
										c-1.924-2.78,0.865,18.93-11.919,26.628c-12.425,7.482-29.66,26.836-2.508,63.803c-0.163,2.078-0.277,4.407-0.328,7.009
										c-0.285,14.684,4.419,29.795,7.128,37.636c2.709,7.841,2.138,10.549-0.855,14.399c-2.994,3.849-8.126,9.837-7.556,13.543
										c0.537,3.492,6.769,17.108,7.846,24.752c0.115,0.819,0.718,1.477,1.526,1.654c8.096,1.772,12.538,1.303,14.293-0.318
										c1.853-1.711-3.992-6.7-7.413-7.698c-3.421-1.14-3.279-11.262-2.138-15.254c1.14-3.992,10.977-12.403,17.82-21.812
										c6.843-9.409,6.558-25.09,8.839-28.94c2.281-3.849,23.665-8.554,37.208-11.12c13.543-2.566,46.047-10.621,55.884-34.785
										c9.837-24.164,6.629-32.076-2.138-45.548c-1.971-4.188-3.018-10.787-3.553-16.816l0.001,0
										c0.133-13.2,3.716-16.737,10.773-19.826c7.057-3.089,11.975-4.823,18.176-11.853
										C283.271,199.366,283.913,189.261,280.492,189.211z"/>
									<path style="fill:#F9E4D2;" d="M223.057,278.522c-0.923-0.923-2.769-2.769-3.692-1.846
										c-7.384,14.768,0.923,32.304-11.076,45.226c-12.027,12.027-32.843,9.67-43.855,21.935
										c7.197-3.222,22.791-6.585,33.495-8.613c11.865-2.248,38.279-8.71,51.258-26.523
										C236.722,302.775,226.608,292.018,223.057,278.522z"/>
									<path style="fill:#F9E4D2;" d="M281.258,199.417c0,0-7.597,8.189-28.434,8.983
										C255.336,210.223,277.62,209.227,281.258,199.417z"/>
									<path style="fill:#D66767;" d="M269.841,205.875c0,0,10.44-2.778,9.107,8.263c-0.926,13.723,9.333,2.875,8.256-4.675
										c-1.077-7.549-3.963-9.675-6.478-10.331C277.897,202.684,272.168,205.606,269.841,205.875z"/>
									<path style="fill:#D66767;" d="M273.853,190.41c0.249-0.269,3.832-4.013,7.582-3.379c3.75,0.635,3.334,4.831,1.09,5.358
										C280.281,192.915,272.329,192.058,273.853,190.41z"/>
									<path style="fill:#362218;" d="M173.216,320.979c-8.067,4.4-9.138,13.461-6.924,22.092
										c7.776-2.979,21.779-5.979,31.637-7.847c0.638-0.121,1.33-0.258,2.047-0.404
										C190.75,329.278,186.134,314.519,173.216,320.979z"/>
									<path style="fill:#362218;" d="M145.526,343.13c3.692-16.614-11.076-13.845-22.151-15.691
										c-0.857,0-1.537-0.355-2.095-0.926c-0.02,0.606-0.036,1.228-0.049,1.867c-0.167,8.598,1.379,17.331,3.231,24.676
										C132.958,354.814,142.636,351.801,145.526,343.13z"/>
									<path style="fill:#362218;" d="M231.363,246.217c-6.461,8.307,0.923,18.46,9.23,22.151
										c6.394,2.906,12.421,2.15,17.853-0.651c-1.395-4.21-3.754-8.189-6.772-12.827c-1.971-4.188-3.018-10.787-3.553-16.816
										l0.001,0c0.005-0.515,0.018-1.011,0.033-1.497C242.829,240.33,235.529,240.663,231.363,246.217z"/>
									<path style="fill:#362218;" d="M241.516,212.067c-1.846-3.692-7.384-3.692-9.23-1.846
										c-6.714,4.196-10.386,11.431-17.24,14.793c-0.043,1.239-0.157,3.152-0.448,5.417c8.3-0.077,16.044-3.492,23.226-6.365
										C242.439,221.297,242.439,216.682,241.516,212.067z"/>
									<path style="fill:#362218;" d="M112.299,277.599c-2.769,6.461-0.923,13.845,5.538,17.537
										c1.434,0.573,2.842,0.927,4.235,1.137c-1.242-3.276-2.121-7.161-2.168-11.658c-0.09-8.575,2.31-12.149,5.507-15.749
										C119.316,268.378,114.735,271.914,112.299,277.599z"/>
									<path style="fill:#362218;" d="M127.067,404.047c0-8.663,6.039-17.996,1.506-25.136c-0.313,0.491-0.667,0.988-1.07,1.505
										c-2.994,3.849-8.126,9.837-7.556,13.543c0.298,1.937,2.348,6.989,4.298,12.408
										C125.899,405.69,127.067,404.739,127.067,404.047z"/>
									<path style="fill:#362218;" d="M151.064,358.821c-5.632,4.827-2.848,12.459-0.819,18.617
										c0.558-0.712,1.108-1.429,1.636-2.155c3.179-4.371,4.819-10.096,5.893-15.36
										C155.312,359.775,152.572,358.067,151.064,358.821z"/>
									<path style="fill:#362218;" d="M157.525,296.981c7.384,3.692,16.614,5.538,23.997,9.23
										c20.306,8.307,42.457-12.922,40.611-35.073c-0.923-9.23-8.307-14.768-14.768-21.229c-0.083-0.166-0.151-0.348-0.22-0.529
										c-6.495,7.476-10.573,5.697-20.053,21.406c-6.51,10.787-18.963,19.752-30.081,25.792
										C157.18,296.73,157.35,296.865,157.525,296.981z"/>
									<g>
										<path style="fill:#FFEEDE;" d="M234.566,291.885c0,0,5.22-0.777,11.975,4.491c6.755,5.268,10.264,5.774,20.101,1.283
											c9.837-4.491,21.384-10.264,29.082-7.912c7.698,2.352,12.973,0.855,14.541,0.428c1.568-0.428,4.419,1.194,4.99-0.971
											c0.57-2.165,0-3.163,0-3.163c1.996-0.713,2.851-5.132,1.426-6.13c-1.426-0.998-5.845-0.57-14.399,0
											c-8.554,0.57-10.407-1.197-14.541-0.599c-4.134,0.599-7.271,3.735-17.25,1.739c-9.979-1.996-12.118-10.977-17.82-13.543
											s-15.254-2.281-19.958,3.849C228.008,277.487,220.453,286.896,234.566,291.885z"/>
									</g>
								</g>
								<path style="fill:#362218;" d="M247.042,201.257c0,1.016-0.824,1.84-1.84,1.84c-1.016,0-1.84-0.824-1.84-1.84
									c0-1.016,0.824-1.84,1.84-1.84C246.218,199.417,247.042,200.241,247.042,201.257z"/>
								<g>
									<path style="fill:#F9E4D2;" d="M232.748,202.646c0,0-3.807,5.229,1.731,22.458c5.538,17.229-0.808,27.085-10.807,32.252
										c-14.768-16.061-19.383-34.763-4-51.948C226.902,200.222,232.748,202.646,232.748,202.646z"/>
									<path style="fill:#FFEEDE;" d="M232.748,202.646c0,0-6.345,5.46-0.808,22.689c5.538,17.229,0.373,25.336-9.626,30.503
										c-14.768-16.061-18.721-33.764-3.338-50.948C226.806,198.28,232.748,202.646,232.748,202.646z"/>
								</g>
							</g>
							<path style="fill:#BC9688;" d="M151.757,319.374c1.39,1.293,2.513,2.85,3.498,4.47c0.98,1.628,1.791,3.356,2.452,5.14
								c1.306,3.576,1.99,7.36,2.217,11.154c0.244,3.803-0.07,7.606-0.442,11.38c-0.396,3.776-0.993,7.542-1.958,11.226
								c-0.971,3.68-2.388,7.252-4.277,10.562c-1.893,3.309-4.293,6.306-6.931,9.034c-2.616,2.749-5.37,5.362-7.865,8.208
								c-1.247,1.42-2.43,2.907-3.367,4.551c-0.939,1.632-1.589,3.473-1.6,5.379c-0.027-1.905,0.59-3.772,1.502-5.433
								c0.91-1.673,2.072-3.193,3.296-4.643c2.48-2.882,5.223-5.509,7.813-8.272c2.61-2.737,4.967-5.724,6.819-9.013
								c1.848-3.291,3.226-6.834,4.164-10.492c0.981-3.647,1.602-7.388,2.022-11.148c0.397-3.762,0.735-7.547,0.518-11.322
								c-0.199-3.77-0.857-7.532-2.123-11.095c-0.621-1.784-1.393-3.519-2.337-5.159
								C154.208,322.268,153.12,320.694,151.757,319.374z"/>
							<g>
								<path style="fill:#BC9688;" d="M136.335,418.43c0.391-0.054,0.787,0.005,1.169,0.122c0.384,0.116,0.748,0.331,1.042,0.632
									c0.293,0.301,0.489,0.711,0.52,1.123c0.058,0.412-0.04,0.812-0.192,1.169c-0.036-0.392-0.038-0.763-0.156-1.098
									c-0.103-0.334-0.262-0.637-0.507-0.877C137.74,419.003,137.06,418.701,136.335,418.43z"/>
								<path style="fill:#BC9688;" d="M139.075,418.014c0.391-0.054,0.787,0.005,1.169,0.123c0.384,0.116,0.748,0.331,1.042,0.632
									c0.293,0.301,0.489,0.711,0.52,1.123c0.058,0.412-0.04,0.812-0.192,1.169c-0.036-0.392-0.038-0.763-0.156-1.098
									c-0.104-0.334-0.262-0.637-0.507-0.877C140.479,418.588,139.8,418.285,139.075,418.014z"/>
								<path style="fill:#BC9688;" d="M141.007,416.907c0.391-0.054,0.787,0.005,1.17,0.122c0.384,0.116,0.747,0.331,1.042,0.632
									c0.293,0.301,0.489,0.711,0.52,1.123c0.058,0.412-0.04,0.812-0.192,1.169c-0.036-0.392-0.038-0.763-0.156-1.098
									c-0.103-0.334-0.262-0.637-0.507-0.877C142.411,417.48,141.732,417.177,141.007,416.907z"/>
							</g>
							<path style="fill:#BC9688;" d="M232.748,202.646c-1.142,2.267-1.424,4.858-1.371,7.359c0.08,2.523,0.611,4.993,1.28,7.427
								c1.293,4.88,2.79,9.718,3.69,14.713c0.433,2.49,0.728,5.053,0.336,7.603c-0.127,0.637-0.276,1.26-0.456,1.859l-0.512,1.827
								c-0.358,1.215-0.734,2.434-1.253,3.603c-0.516,1.168-1.143,2.289-1.874,3.339c-0.765,1.024-1.596,2.002-2.545,2.857
								c-1.867,1.746-4.043,3.107-6.29,4.279l-0.11,0.057l-0.09-0.083c-3.543-3.278-6.339-7.255-8.709-11.417
								c-1.183-2.087-2.229-4.253-3.126-6.476c-0.892-2.224-1.659-4.508-2.106-6.863c0.494,2.345,1.305,4.608,2.24,6.807
								c0.943,2.198,2.029,4.332,3.211,6.408c2.388,4.128,5.202,8.066,8.727,11.281l-0.199-0.026
								c2.219-1.177,4.359-2.538,6.176-4.263c0.925-0.844,1.729-1.806,2.469-2.81c0.706-1.03,1.309-2.125,1.806-3.272
								c0.499-1.146,0.89-2.34,1.25-3.546l0.523-1.818c0.188-0.61,0.334-1.215,0.459-1.816c0.396-2.456,0.13-4.997-0.285-7.47
								c-0.858-4.967-2.321-9.815-3.582-14.708c-0.663-2.434-1.165-4.95-1.184-7.489
								C231.221,207.49,231.559,204.892,232.748,202.646z"/>
							<path style="fill:#BC9688;" d="M231.327,204.668c-0.464,1.087-0.675,2.26-0.827,3.423c-0.15,1.167-0.201,2.345-0.194,3.521
								c0.009,2.352,0.213,4.702,0.585,7.026c0.684,4.659,2.107,9.173,2.99,13.828c0.429,2.329,0.687,4.71,0.552,7.091
								c-0.12,2.375-0.673,4.76-1.784,6.876c-0.226,0.555-0.568,1.046-0.892,1.545c-0.329,0.496-0.622,1.018-1.036,1.45
								l-1.159,1.355l-1.317,1.198l-0.663,0.592l-0.726,0.512l-1.454,1.017c-1.003,0.624-2.062,1.155-3.087,1.736
								c1.008-0.614,2.047-1.177,3.025-1.83l1.414-1.057l0.703-0.531l0.638-0.607l1.278-1.208l1.118-1.356
								c0.4-0.431,0.678-0.951,0.991-1.443c0.31-0.496,0.636-0.982,0.847-1.529c0.223-0.538,0.516-1.05,0.683-1.609l0.517-1.671
								l0.322-1.72c0.087-0.576,0.106-1.163,0.162-1.743c0.119-2.336-0.149-4.678-0.585-6.983
								c-0.838-4.627-2.272-9.157-2.886-13.861c-0.331-2.343-0.498-4.712-0.46-7.079c0.031-1.183,0.12-2.366,0.307-3.534
								C230.578,206.912,230.828,205.74,231.327,204.668z"/>
							<path style="fill:#BC4242;" d="M277.733,201.86c1.171,0.272,2.25,0.744,3.251,1.367c0.993,0.627,1.874,1.445,2.529,2.417
								c0.647,0.97,1.123,2.074,1.271,3.23c0.142,0.567,0.095,1.156,0.136,1.732c-0.011,0.578-0.096,1.154-0.14,1.728
								c0.025-0.577,0.091-1.153,0.082-1.728c-0.06-0.573-0.032-1.155-0.192-1.711c-0.184-1.136-0.688-2.198-1.346-3.117
								c-0.667-0.922-1.542-1.682-2.521-2.255c-0.977-0.567-2.063-0.993-3.15-1.208L277.733,201.86z"/>
							<path style="fill:#BC9688;" d="M251.592,208.452c1.608-0.093,3.212-0.242,4.811-0.424c1.6-0.164,3.195-0.376,4.784-0.62
								c3.173-0.502,6.335-1.12,9.387-2.095c3.066-0.912,5.985-2.355,8.364-4.488c1.188-1.056,2.205-2.322,2.87-3.77
								c0.684-1.428,1.008-3.077,0.718-4.665c0.365,1.573,0.121,3.263-0.511,4.757c-0.637,1.503-1.65,2.827-2.835,3.939
								c-2.379,2.235-5.383,3.714-8.466,4.667c-3.098,0.949-6.279,1.576-9.477,2.006
								C258.036,208.18,254.814,208.415,251.592,208.452z"/>
							<path style="fill:#BC9688;" d="M159.393,347.935c0.364-0.986,1.058-1.562,1.744-2.151c0.695-0.577,1.46-1.044,2.231-1.491
								c1.561-0.862,3.195-1.568,4.857-2.184c3.326-1.235,6.76-2.126,10.21-2.899c6.907-1.518,13.869-2.72,20.765-4.242
								c3.451-0.746,6.876-1.604,10.279-2.543c3.39-0.983,6.755-2.06,10.048-3.332c6.592-2.529,12.892-5.811,18.777-9.718
								c-5.863,3.939-12.149,7.258-18.735,9.826c-3.291,1.292-6.653,2.389-10.043,3.391c-3.402,0.959-6.827,1.836-10.277,2.602
								c-6.893,1.561-13.854,2.802-20.739,4.355c-3.435,0.789-6.852,1.696-10.145,2.939c-1.646,0.62-3.258,1.328-4.785,2.182
								c-0.753,0.441-1.499,0.903-2.161,1.46c-0.648,0.531-1.323,1.205-1.574,1.892L159.393,347.935z"/>
							<path style="fill:#BC9688;" d="M162.829,344.858c0.536,5.744,0.477,11.575-0.499,17.288c-0.497,2.849-1.233,5.68-2.441,8.332
								c-1.199,2.64-2.671,5.151-4.298,7.546c-1.64,2.388-3.433,4.652-5.073,7.019c-1.643,2.362-3.091,4.858-4.215,7.506
								c-0.518,1.34-1.182,2.648-1.174,4.086c-0.056,1.425,0.166,2.856,0.491,4.252c0.322,1.4,0.765,2.775,1.311,4.107
								c0.279,0.663,0.571,1.324,0.919,1.954c0.345,0.627,0.706,1.269,1.252,1.748c-0.558-0.465-0.938-1.1-1.301-1.72
								c-0.366-0.624-0.676-1.278-0.974-1.937c-0.584-1.323-1.065-2.693-1.427-4.098c-0.347-1.406-0.582-2.853-0.539-4.317
								c-0.005-0.366,0.071-0.73,0.104-1.095c0.078-0.357,0.166-0.724,0.28-1.068c0.26-0.676,0.491-1.363,0.775-2.03
								c1.109-2.679,2.55-5.214,4.181-7.604c1.628-2.393,3.399-4.677,5.01-7.061c1.637-2.365,3.117-4.838,4.33-7.446
								c1.212-2.599,1.969-5.398,2.487-8.225c0.516-2.832,0.784-5.707,0.895-8.587C163.049,350.627,163.04,347.737,162.829,344.858z
								"/>
						</g>
						<g>
							<path style="fill:#EBB39F;" d="M237.499,281.438c0,0-3.104-1.753-3.955-5.681c-0.851-3.928-0.685-13.97-1.668-16.43
								c-0.983-2.46-4.003,0.924-3.612,4.807c0.392,3.882,0.54,4.845-0.423,4.993c-0.963,0.148-9.757-7.951-12.341-12.728
								c-2.926-4.601-3.233-0.397-1.511,2.787c1.723,3.184,5.672,8.428,5.899,8.701c-3.958-1.3-8.928-9.113-10.351-10.998
								c-1.423-1.885-2.788-1.516-1.718,1.831c1.07,3.346,6.524,8.361,8.098,10.582c1.574,2.22-0.569,1.506-2.287,0.352
								c-1.718-1.153-5.19-5.3-6.25-6.184c-1.06-0.884-1.806-0.528-1.375,0.671c0.431,1.199,4.57,7.276,7.385,9.553
								c2.755,2.286,0.129,1.828-2.178,0.175c-1.277-0.915-2.771-3.109-3.664-3.71c-0.893-0.602-1.37,0.704,0.491,3.189
								c1.861,2.485,4.556,5.582,9.361,7.983c4.805,2.402,10.949,9.895,10.949,9.895L237.499,281.438z"/>
							<path style="fill:#FF8548;" d="M308.559,286.828c0,0,18.399-18.07,36.29-21.043c17.891-2.972,26.65,22.565,9.04,36.594
								c-11.655,9.285-54.119,28.599-79.287,23.766c-25.168-4.834-44.674-22.552-48.776-32.74
								c-4.102-10.188,4.682-17.547,10.856-15.403c6.174,2.144,20.166,12.399,36.755,16.5
								C290.027,298.604,297.712,293.784,308.559,286.828z"/>
							<g>
								<path style="fill:#BA4D3A;" d="M227.225,296.194c-0.056-1.949,0.123-3.912,0.566-5.826c0.43-1.911,1.166-3.792,2.382-5.382
									c0.279-0.416,0.682-0.73,1.023-1.095c0.398-0.298,0.796-0.624,1.22-0.868c0.841-0.506,1.713-0.964,2.618-1.346
									c1.801-0.755,3.755-1.309,5.713-1.156c-0.976-0.018-1.935,0.191-2.862,0.455c-0.929,0.266-1.836,0.607-2.707,1.025
									c-1.707,0.874-3.533,1.708-4.644,3.271c-1.188,1.491-1.907,3.321-2.401,5.181c-0.264,0.93-0.442,1.884-0.592,2.842
									C227.382,294.253,227.271,295.221,227.225,296.194z"/>
								<path style="fill:#BA4D3A;" d="M225.624,292.362c-0.113-1.905,0.112-3.833,0.632-5.687c0.544-1.836,1.442-3.641,2.891-4.973
									c0.718-0.675,1.577-1.158,2.439-1.583c0.866-0.434,1.802-0.718,2.749-0.902c1.894-0.364,3.908-0.189,5.642,0.612
									c-1.793-0.643-3.752-0.705-5.577-0.292c-0.91,0.221-1.801,0.523-2.637,0.947c-0.836,0.426-1.647,0.899-2.312,1.546
									c-1.357,1.27-2.269,2.968-2.839,4.755C226.027,288.574,225.718,290.462,225.624,292.362z"/>
								<path style="fill:#BA4D3A;" d="M281.512,305.353c0.496-0.656,0.8-1.415,1.024-2.181c0.21-0.773,0.323-1.57,0.362-2.371
									c0.063-0.801,0-1.608-0.043-2.417c-0.072-0.809-0.196-1.612-0.303-2.432c0.144,0.386,0.259,0.781,0.39,1.174l0.266,1.212
									c0.128,0.818,0.206,1.652,0.151,2.488c-0.052,0.832-0.184,1.67-0.487,2.455
									C282.569,304.058,282.154,304.821,281.512,305.353z"/>
								<path style="fill:#BA4D3A;" d="M288.062,305.476c0.348-0.745,0.487-1.551,0.546-2.347c0.044-0.8-0.012-1.603-0.141-2.394
									c-0.106-0.797-0.335-1.572-0.546-2.354c-0.239-0.776-0.528-1.536-0.804-2.315c0.221,0.347,0.416,0.71,0.626,1.067
									l0.513,1.13c0.296,0.774,0.546,1.573,0.667,2.401c0.123,0.825,0.169,1.672,0.036,2.503
									C288.826,303.988,288.579,304.821,288.062,305.476z"/>
							</g>
						</g>
					</g>
					<g>
						<path style="fill:#BA4D3A;" d="M323.142,262.174c1.302-0.496,2.43-1.349,3.468-2.256c1.027-0.928,1.973-1.947,2.811-3.049
							c1.725-2.168,3.098-4.596,4.298-7.089l1.689-3.809c0.574-1.271,1.218-2.509,1.893-3.729c1.357-2.437,2.914-4.765,4.676-6.935
							c1.796-2.138,3.793-4.128,6.077-5.752c1.137-0.814,2.337-1.55,3.613-2.131c1.266-0.597,2.597-1.072,3.972-1.348
							c1.369-0.297,2.778-0.429,4.177-0.347c1.401,0.046,2.789,0.305,4.126,0.706c2.674,0.83,5.136,2.218,7.345,3.899
							c-2.254-1.622-4.746-2.935-7.408-3.683c-1.327-0.378-2.695-0.624-4.074-0.655c-1.377-0.068-2.759,0.074-4.101,0.379
							c-1.348,0.283-2.65,0.762-3.89,1.361c-1.249,0.583-2.423,1.318-3.536,2.131c-2.236,1.62-4.189,3.606-5.947,5.733
							c-1.762,2.13-3.327,4.424-4.697,6.83c-0.681,1.205-1.332,2.429-1.914,3.686l-1.726,3.797
							c-1.233,2.497-2.633,4.932-4.399,7.097c-0.874,1.088-1.855,2.088-2.913,2.994
							C325.615,260.887,324.459,261.712,323.142,262.174z"/>
						<path style="fill:#BA4D3A;" d="M326.084,261.331c2.315,0.536,4.69-0.157,6.807-1.055c2.129-0.956,4.084-2.266,5.884-3.75
							c1.807-1.493,3.374-3.197,5.138-4.796c1.783-1.54,3.754-2.921,5.97-3.79c2.19-0.877,4.555-1.467,6.941-1.344
							c2.373,0.084,4.735,0.72,6.781,1.935c2.086,1.172,3.689,3.025,4.943,5.001c1.303,1.988,1.936,4.297,2.513,6.557
							c-0.65-2.244-1.354-4.516-2.704-6.437c-1.276-1.925-2.878-3.712-4.932-4.815c-2.018-1.133-4.3-1.759-6.611-1.822
							c-2.32-0.107-4.622,0.484-6.755,1.35c-2.168,0.834-4.108,2.176-5.87,3.679c-1.728,1.536-3.341,3.3-5.192,4.755
							c-1.845,1.465-3.844,2.758-6.018,3.681C330.807,261.324,328.385,261.942,326.084,261.331z"/>
					</g>
				</g>
				<g>
					<g>
						
							<ellipse transform="matrix(0.7071 -0.7071 0.7071 0.7071 -239.7861 246.5649)" style="fill:#FF694A;" cx="177.737" cy="412.73" rx="14.354" ry="14.354"/>
						<path style="fill:#FF7C66;" d="M188.337,408.79c-1.067,3.661-5.552,5.574-10.018,4.273c-4.466-1.301-7.221-5.324-6.154-8.986
							c1.067-3.661,5.552-5.575,10.018-4.273S189.404,405.129,188.337,408.79z"/>
					</g>
					<path style="fill:#BA4D3A;" d="M182.42,399.158c-2.362-0.076-4.71,0.972-6.216,2.75c-0.771,0.874-1.367,1.898-1.601,3.032
						c-0.246,1.129-0.218,2.31-0.019,3.454c0.437,2.283,1.367,4.481,2.684,6.401c0.332,0.478,0.686,0.94,1.071,1.372
						c0.186,0.223,0.403,0.412,0.603,0.62c0.198,0.223,0.43,0.466,0.599,0.729c0.649,1.134,0.44,2.557-0.2,3.593
						c-0.638,1.058-1.626,1.882-2.767,2.332c-1.141,0.457-2.436,0.488-3.603,0.134c-1.19-0.327-2.187-1.074-3.078-1.863
						c-0.911-0.793-1.598-1.793-2.232-2.799c-1.191-2.07-1.949-4.367-2.267-6.718c-0.162-1.174-0.219-2.365-0.127-3.547
						c0.087-1.177,0.285-2.362,0.755-3.449c-0.435,1.101-0.592,2.285-0.642,3.455c-0.054,1.174,0.04,2.352,0.238,3.507
						c0.36,2.317,1.148,4.568,2.348,6.568c0.639,0.968,1.319,1.928,2.197,2.688c0.864,0.755,1.82,1.461,2.927,1.754
						c1.088,0.321,2.273,0.285,3.321-0.142c1.047-0.418,1.956-1.19,2.533-2.155c0.593-0.949,0.753-2.185,0.219-3.135
						c-0.148-0.228-0.329-0.418-0.517-0.637c-0.208-0.218-0.435-0.42-0.626-0.652c-0.398-0.451-0.759-0.929-1.097-1.421
						c-1.332-1.979-2.292-4.219-2.687-6.581c-0.184-1.18-0.193-2.403,0.084-3.576c0.266-1.18,0.91-2.246,1.717-3.118
						C177.643,399.981,180.063,399.005,182.42,399.158z"/>
				</g>
				<g>
					<path style="fill:#FFFFFF;" d="M278.992,413.742c0,0,2.537,2.096,7.608,2.659c5.071,0.563,19.095,1.91,22.841-0.176
						c3.746-2.085,3.746-2.085,3.746-2.085l-2.332,12.267c0,0-0.911-3.003-9.239-3.659c-8.327-0.655-17.222-2.474-24.819,1.262
						C272.708,421.574,278.992,413.742,278.992,413.742z"/>
					<g>
						<path style="fill:#FFFFFF;" d="M278.752,417.518c-1.873,2.478-5.401,2.968-7.878,1.094c-2.478-1.873-2.968-5.401-1.094-7.878
							c1.873-2.478,5.401-2.968,7.878-1.094C280.135,411.513,280.625,415.04,278.752,417.518z"/>
						<path style="fill:#FFFFFF;" d="M277.74,424.723c-1.873,2.478-5.401,2.968-7.878,1.094c-2.478-1.873-2.968-5.401-1.094-7.878
							c1.873-2.478,5.401-2.968,7.878-1.094C279.124,418.718,279.614,422.245,277.74,424.723z"/>
					</g>
					<g>
						<path style="fill:#FFFFFF;" d="M321.038,420.128c-1.873,2.478-5.401,2.968-7.878,1.094c-2.478-1.873-2.968-5.401-1.094-7.878
							c1.873-2.478,5.401-2.968,7.878-1.094C322.421,414.123,322.911,417.651,321.038,420.128z"/>
						<path style="fill:#FFFFFF;" d="M320.026,427.333c-1.873,2.478-5.401,2.968-7.878,1.094c-2.478-1.873-2.968-5.401-1.094-7.878
							c1.873-2.478,5.401-2.968,7.879-1.094C321.409,421.328,321.899,424.855,320.026,427.333z"/>
					</g>
				</g>
			</g>
		</g>
	</g>
</g>
</svg>
